<svg width="64" height="64" xmlns="http://www.w3.org/2000/svg">

 <g>
  <title>background</title>
  <rect fill="none" id="canvas_background" height="402" width="582" y="-1" x="-1"/>
 </g>
 <g>
  <title>Layer 1</title>
  <polygon id="svg_1" fill="#EFE6DD" points="48,3 9,3 9,61 55,61 55,10 "/>
  <polygon id="svg_2" fill="#1934BF" points="55,10 48,10 48,3 "/>
  <rect id="svg_3" fill="#272734" y="6" x="12" width="2" height="2"/>
  <rect id="svg_4" fill="#272734" y="6" x="16" width="2" height="2"/>
  <rect id="svg_5" fill="#272734" y="6" x="20" width="2" height="2"/>
  <polygon id="svg_6" fill="#272734" points="18,38.41406 14.29297,34.70703 15.70703,33.29297 18,35.58594 23.29297,30.29297   24.70703,31.70703 "/>
  <polygon id="svg_7" fill="#272734" points="18,58.41406 14.29297,54.70703 15.70703,53.29297 18,55.58594 23.29297,50.29297   24.70703,51.70703 "/>
  <rect id="svg_8" fill="#272734" y="43.00011" x="14.34315" width="11.31371" transform="matrix(0.70711,-0.70711,0.70711,0.70711,-25.25483,27.02944) " height="1.99979"/>
  <rect id="svg_9" fill="#272734" y="38.34315" x="19.00011" width="1.99979" transform="matrix(0.70711,-0.70711,0.70711,0.70711,-25.25483,27.02944) " height="11.31371"/>
  <rect id="svg_10" fill="#272734" y="33" x="29" width="20" height="2"/>
  <rect id="svg_11" fill="#272734" y="43" x="29" width="20" height="2"/>
  <rect id="svg_12" fill="#272734" y="53" x="29" width="20" height="2"/>
  <text font-weight="bold" stroke="null" transform="matrix(1.284015874867529,0,0,1,-9.760525465735814,0) " xml:space="preserve" text-anchor="start" font-family="Helvetica, Arial, sans-serif" font-size="12" id="svg_19" y="23.56775" x="14.835422" fill-opacity="null" stroke-opacity="null" stroke-width="0" fill="#000000">ASRM</text>
 </g>
</svg>