<?xml version="1.0" ?><svg id="Layer_35" style="enable-background:new 0 0 64 64;" version="1.1" viewBox="0 0 64 64" xml:space="preserve" xmlns="http://www.w3.org/2000/svg" xmlns:xlink="http://www.w3.org/1999/xlink"><g><g><polygon points="48,13 48,23 34,23 34,11 48,11   " style="fill:#B4DD7F;"/><rect height="12" style="fill:#E6E9ED;" width="14" x="34" y="29"/><polygon points="61,53 51,59 51,53 51,47   " style="fill:#AAB2BD;"/><path d="M51,53v6H22l-0.04-0.01C21.99,58.83,22,58.67,22,58.5V53H51z" style="fill:#FFEAA7;"/><rect height="6" style="fill:#FF826E;" width="29" x="22" y="47"/><path d="M15,38v2v18.5c0,1.93-1.57,3.5-3.5,3.5c-0.96,0-1.84-0.39-2.47-1.03C8.39,60.34,8,59.46,8,58.5V38    H15z" style="fill:#838F9B;"/><path d="M22,53v5.5c0,0.17-0.01,0.33-0.04,0.49c-0.23,1.7-1.7,3.01-3.46,3.01c-0.96,0-1.84-0.39-2.47-1.03    C15.39,60.34,15,59.46,15,58.5V40v-2h3v-4h4v6v7V53z" style="fill:#838F9B;"/><path d="M18,24v10v4h-3H8v-5h5.5c0.69,0,1.32-0.28,1.77-0.73C15.72,31.82,16,31.19,16,30.5    c0-1.38-1.12-2.5-2.5-2.5H8v-4H18z" style="fill:#E6E9ED;"/><path d="M22,34h-4V24H8v4h5.5c1.38,0,2.5,1.12,2.5,2.5c0,0.69-0.28,1.32-0.73,1.77    C14.82,32.72,14.19,33,13.5,33H8H6c-2.21,0-4-1.79-4-4v-3c0-5.52,4.48-10,10-10h3h2c5.52,0,10,4.48,10,10v10c0,2.21-1.79,4-4,4h-1    V34z" style="fill:#FCD770;"/><circle cx="15" cy="9" r="7" style="fill:#F0D0B4;"/></g><g><path d="M23,46v-5c2.757,0,5-2.243,5-5V26c0-5.093-3.484-9.376-8.19-10.623C21.743,13.916,23,11.605,23,9c0-4.411-3.589-8-8-8    S7,4.589,7,9c0,2.498,1.152,4.73,2.951,6.199C4.863,16.162,1,20.635,1,26v3c0,2.757,2.243,5,5,5h1v4v1v19.5    c0,2.481,2.019,4.5,4.5,4.5c1.421,0,2.675-0.675,3.5-1.706C15.825,62.325,17.079,63,18.5,63c1.953,0,3.602-1.258,4.224-3h28.553    l11.667-7l-11.667-7H23z M23,54h27v4H23V54z M50,48v4H23v-4H50z M9,9c0-3.309,2.691-6,6-6s6,2.691,6,6s-2.691,6-6,6S9,12.309,9,9z     M3,29v-3c0-4.962,4.038-9,9-9h3h2c4.962,0,9,4.038,9,9v10c0,1.654-1.346,3-3,3V23h-2v10h-2V23H7v4H5v2h8.5    c0.827,0,1.5,0.673,1.5,1.5S14.327,32,13.5,32H6C4.346,32,3,30.654,3,29z M13.5,34c1.93,0,3.5-1.57,3.5-3.5S15.43,27,13.5,27H9v-2    h8v5.5V37H9v-3H13.5z M11.5,61C10.122,61,9,59.878,9,58.5V39h5v1v18.5C14,59.878,12.878,61,11.5,61z M18.5,61    c-1.378,0-2.5-1.122-2.5-2.5V40v-1h3v-4h2v23.5C21,59.878,19.878,61,18.5,61z M52,57.234v-8.468L59.056,53L52,57.234z"/><path d="M49,28H33v14h16V28z M47,40H35V30h12V40z"/><path d="M49,13.414l4.707-4.707l-1.414-1.414L49,10.586V10H33v14h16V13.414z M35,22V12h12v0.586l-6,6l-3.293-3.293l-1.414,1.414    L41,21.414l6-6V22H35z"/><rect height="2" width="12" x="51" y="28"/><rect height="2" width="12" x="51" y="22"/><rect height="2" width="12" x="51" y="18"/><rect height="2" width="12" x="51" y="14"/><rect height="2" width="8" x="55" y="10"/><rect height="2" width="12" x="51" y="32"/><rect height="2" width="2" x="61" y="36"/><rect height="2" width="8" x="51" y="36"/><rect height="2" width="12" x="51" y="40"/></g></g></svg>