<?xml version="1.0" encoding="UTF-8"?>
<svg id="Layer_1_1_" style="enable-background:new 0 0 64 64;" version="1.1" viewBox="0 0 64 64" xml:space="preserve" 
     xmlns="http://www.w3.org/2000/svg" xmlns:xlink="http://www.w3.org/1999/xlink">

        
            <polygon id="Path" fill="#EFE6DD" points="39 0 0 0 0 58 46 58 46 7"></polygon>
            <polygon id="Path" fill="#1934BF" points="46 7 39 7 39 0"></polygon>
            <rect id="Rectangle" fill="#272734" x="3" y="3" width="2" height="2"></rect>
            <rect id="Rectangle" fill="#272734" x="7" y="3" width="2" height="2"></rect>
            <rect id="Rectangle" fill="#272734" x="11" y="3" width="2" height="2"></rect>
            <polygon id="Path" fill="#272734" points="9 35.41406 5.29297 31.70703 6.70703 30.29297 9 32.58594 14.29297 27.29297 15.70703 28.70703"></polygon>
            <polygon id="Path" fill="#272734" points="9 55.41406 5.29297 51.70703 6.70703 50.29297 9 52.58594 14.29297 47.29297 15.70703 48.70703"></polygon>
            <rect id="Rectangle" fill="#272734" transform="translate(11.000217, 41.000080) rotate(-45.000000) translate(-11.000217, -41.000080) " x="5.34333632" y="40.0001804" width="11.3137615" height="1.9997991"></rect>
            <rect id="Rectangle" fill="#272734" transform="translate(11.000217, 41.000080) rotate(-45.000000) translate(-11.000217, -41.000080) " x="10.0003175" y="35.3431992" width="1.9997991" height="11.3137615"></rect>
            <rect id="Rectangle" fill="#272734" x="20" y="30" width="20" height="2"></rect>
            <rect id="Rectangle" fill="#272734" x="20" y="40" width="20" height="2"></rect>
            <rect id="Rectangle" fill="#272734" x="20" y="50" width="20" height="2"></rect>
            <path d="M4.63476562,21 C5.93945312,21 6.90429688,20.4628906 7.52929688,19.3886719 C7.99023438,18.5917969 8.22070312,17.6191406 8.22070312,16.4707031 C8.22070312,16.0175781 8.16601562,15.5410156 8.05664062,15.0410156 C7.94726562,14.5410156 7.7421875,14.0761719 7.44140625,13.6464844 C7.06640625,13.1152344 6.57617188,12.75 5.97070312,12.5507812 C5.61523438,12.4335938 5.16992188,12.3710938 4.63476562,12.3632812 L4.63476562,12.3632812 L0.9140625,12.3632812 L0.9140625,21 L4.63476562,21 Z M4.33007812,19.5 L2.66601562,19.5 L2.66601562,13.8632812 L4.33007812,13.8632812 C5.15039062,13.8632812 5.69824219,14.0986328 5.97363281,14.5693359 C6.24902344,15.0400391 6.38671875,15.7148438 6.38671875,16.59375 C6.38671875,17.2304688 6.29492188,17.7792969 6.11132812,18.2402344 C5.77539062,19.0800781 5.18164062,19.5 4.33007812,19.5 L4.33007812,19.5 Z M10.8574219,21 L11.4550781,19.2246094 L14.6367188,19.2246094 L15.1933594,21 L17.1503906,21 L14.0917969,12.3632812 L12.0527344,12.3632812 L8.97070312,21 L10.8574219,21 Z M14.1328125,17.7363281 L11.9414062,17.7363281 L13.0546875,14.3378906 L14.1328125,17.7363281 Z M21.4511719,21.2226562 C22.5527344,21.2226562 23.4052734,20.9619141 24.0087891,20.4404297 C24.6123047,19.9189453 24.9140625,19.2636719 24.9140625,18.4746094 C24.9140625,17.7050781 24.65625,17.1171875 24.140625,16.7109375 C23.8085938,16.4492188 23.3164062,16.2402344 22.6640625,16.0839844 L22.6640625,16.0839844 L21.1757812,15.7265625 C20.6015625,15.5898438 20.2265625,15.4707031 20.0507812,15.3691406 C19.7773438,15.2167969 19.640625,14.9863281 19.640625,14.6777344 C19.640625,14.3417969 19.7792969,14.0800781 20.0566406,13.8925781 C20.3339844,13.7050781 20.7050781,13.6113281 21.1699219,13.6113281 C21.5878906,13.6113281 21.9375,13.6835938 22.21875,13.828125 C22.640625,14.046875 22.8671875,14.4160156 22.8984375,14.9355469 L22.8984375,14.9355469 L24.6328125,14.9355469 C24.6015625,14.0175781 24.2646484,13.3173828 23.6220703,12.8349609 C22.9794922,12.3525391 22.203125,12.1113281 21.2929688,12.1113281 C20.203125,12.1113281 19.3769531,12.3671875 18.8144531,12.8789062 C18.2519531,13.390625 17.9707031,14.0332031 17.9707031,14.8066406 C17.9707031,15.6542969 18.2617188,16.2773438 18.84375,16.6757812 C19.1875,16.9140625 19.8085938,17.1347656 20.7070312,17.3378906 L20.7070312,17.3378906 L21.6210938,17.5429688 C22.15625,17.6601562 22.5488281,17.7949219 22.7988281,17.9472656 C23.0488281,18.1035156 23.1738281,18.3242188 23.1738281,18.609375 C23.1738281,19.0976562 22.921875,19.4316406 22.4179688,19.6113281 C22.1523438,19.7050781 21.8066406,19.7519531 21.3808594,19.7519531 C20.6699219,19.7519531 20.1679688,19.5742188 19.875,19.21875 C19.7148438,19.0234375 19.6074219,18.7285156 19.5527344,18.3339844 L19.5527344,18.3339844 L17.8300781,18.3339844 C17.8300781,19.2324219 18.1523438,19.9384766 18.796875,20.4521484 C19.4414062,20.9658203 20.3261719,21.2226562 21.4511719,21.2226562 Z M29.4550781,21.2226562 C30.5566406,21.2226562 31.4091797,20.9619141 32.0126953,20.4404297 C32.6162109,19.9189453 32.9179688,19.2636719 32.9179688,18.4746094 C32.9179688,17.7050781 32.6601562,17.1171875 32.1445312,16.7109375 C31.8125,16.4492188 31.3203125,16.2402344 30.6679688,16.0839844 L30.6679688,16.0839844 L29.1796875,15.7265625 C28.6054688,15.5898438 28.2304688,15.4707031 28.0546875,15.3691406 C27.78125,15.2167969 27.6445312,14.9863281 27.6445312,14.6777344 C27.6445312,14.3417969 27.7832031,14.0800781 28.0605469,13.8925781 C28.3378906,13.7050781 28.7089844,13.6113281 29.1738281,13.6113281 C29.5917969,13.6113281 29.9414062,13.6835938 30.2226562,13.828125 C30.6445312,14.046875 30.8710938,14.4160156 30.9023438,14.9355469 L30.9023438,14.9355469 L32.6367188,14.9355469 C32.6054688,14.0175781 32.2685547,13.3173828 31.6259766,12.8349609 C30.9833984,12.3525391 30.2070312,12.1113281 29.296875,12.1113281 C28.2070312,12.1113281 27.3808594,12.3671875 26.8183594,12.8789062 C26.2558594,13.390625 25.9746094,14.0332031 25.9746094,14.8066406 C25.9746094,15.6542969 26.265625,16.2773438 26.8476562,16.6757812 C27.1914062,16.9140625 27.8125,17.1347656 28.7109375,17.3378906 L28.7109375,17.3378906 L29.625,17.5429688 C30.1601562,17.6601562 30.5527344,17.7949219 30.8027344,17.9472656 C31.0527344,18.1035156 31.1777344,18.3242188 31.1777344,18.609375 C31.1777344,19.0976562 30.9257812,19.4316406 30.421875,19.6113281 C30.15625,19.7050781 29.8105469,19.7519531 29.3847656,19.7519531 C28.6738281,19.7519531 28.171875,19.5742188 27.8789062,19.21875 C27.71875,19.0234375 27.6113281,18.7285156 27.5566406,18.3339844 L27.5566406,18.3339844 L25.8339844,18.3339844 C25.8339844,19.2324219 26.15625,19.9384766 26.8007812,20.4521484 C27.4453125,20.9658203 28.3300781,21.2226562 29.4550781,21.2226562 Z M39.5332031,21 L39.5332031,19.5292969 L35.8242188,19.5292969 C35.9296875,19.3535156 36.0595703,19.1992188 36.2138672,19.0664062 C36.3681641,18.9335938 36.6542969,18.71875 37.0722656,18.421875 L37.0722656,18.421875 L37.7402344,17.9472656 C38.3027344,17.5488281 38.7070312,17.1875 38.953125,16.8632812 C39.328125,16.375 39.515625,15.8164062 39.515625,15.1875 C39.515625,14.3671875 39.25,13.7080078 38.71875,13.2099609 C38.1875,12.7119141 37.4726562,12.4628906 36.5742188,12.4628906 C35.4375,12.4628906 34.6464844,12.8867188 34.2011719,13.734375 C33.9667969,14.1796875 33.8359375,14.7636719 33.8085938,15.4863281 L33.8085938,15.4863281 L35.4316406,15.4863281 C35.4511719,15.0097656 35.5136719,14.6621094 35.6191406,14.4433594 C35.8027344,14.0644531 36.1484375,13.875 36.65625,13.875 C37.0273438,13.875 37.3125,13.9941406 37.5117188,14.2324219 C37.7109375,14.4707031 37.8105469,14.7695312 37.8105469,15.1289062 C37.8105469,15.5703125 37.6367188,15.9765625 37.2890625,16.3476562 C37.0625,16.5859375 36.5644531,16.9804688 35.7949219,17.53125 C34.9082031,18.1640625 34.3457031,18.7636719 34.1074219,19.3300781 C33.8613281,19.8339844 33.7304688,20.390625 33.7148438,21 L33.7148438,21 L39.5332031,21 Z M44.5546875,21 L44.5546875,12.5039062 L43.1660156,12.5039062 C43.1660156,12.578125 43.1445312,12.6914062 43.1015625,12.84375 C43.0273438,13.0976562 42.9179688,13.3007812 42.7734375,13.453125 C42.5625,13.6757812 42.2890625,13.8242188 41.953125,13.8984375 C41.7421875,13.9453125 41.3730469,13.9804688 40.8457031,14.0039062 L40.8457031,14.0039062 L40.8457031,15.140625 L42.84375,15.140625 L42.84375,21 L44.5546875,21 Z" id="DASS21" fill="#000000"></path>
    
</svg>