<?xml version="1.0" ?><svg data-name="Layer 4" id="Layer_4" viewBox="0 0 64 64" xmlns="http://www.w3.org/2000/svg"><defs><style>
      .cls-1 {
        fill: #43cb8e;
      }

      .cls-2 {
        opacity: 0.1;
      }

      .cls-3 {
        fill: none;
      }

      .cls-3, .cls-7 {
        stroke: #000;
        stroke-linecap: round;
        stroke-linejoin: round;
      }

      .cls-4 {
        fill: #dfebfa;
      }

      .cls-5 {
        fill: #ff656f;
      }

      .cls-6, .cls-7 {
        fill: #fee55a;
      }
    </style></defs><title/><circle class="cls-1" cx="19.44" cy="9.85" r="7.85"/><path class="cls-2" d="M13.34,9.85a7.85,7.85,0,0,1,7-7.8,7.85,7.85,0,1,0-.88,15.65,7.91,7.91,0,0,0,.88-0.05A7.85,7.85,0,0,1,13.34,9.85Z"/><circle class="cls-3" cx="19.44" cy="9.85" r="7.85"/><g><path class="cls-3" d="M14.74,8.58l0.06-.09a1.67,1.67,0,0,1,2.89.09h0"/><path class="cls-3" d="M21.19,8.58l0.06-.09a1.67,1.67,0,0,1,2.89.09h0"/></g><path class="cls-4" d="M14.74,11.7h9.4s-1.26,3.59-4.7,3.59S14.74,11.7,14.74,11.7Z"/><path class="cls-2" d="M16.49,11.7H14.74s1.26,3.59,4.7,3.59a4.55,4.55,0,0,0,.88-0.09C17.54,14.66,16.49,11.7,16.49,11.7Z"/><path class="cls-3" d="M14.74,11.7h9.4s-1.26,3.59-4.7,3.59S14.74,11.7,14.74,11.7Z"/><circle class="cls-5" cx="19.45" cy="53.97" r="7.85"/><path class="cls-2" d="M13.1,54a7.85,7.85,0,0,1,7.1-7.81c-0.25,0-.5,0-0.75,0a7.85,7.85,0,0,0,0,15.71c0.25,0,.5,0,0.75,0A7.85,7.85,0,0,1,13.1,54Z"/><circle class="cls-3" cx="19.45" cy="53.97" r="7.85"/><g><path class="cls-3" d="M24.15,51.83l-0.06.09a1.67,1.67,0,0,1-2.89-.09h0"/><path class="cls-3" d="M17.7,51.83l-0.06.09a1.67,1.67,0,0,1-2.89-.09h0"/></g><circle class="cls-6" cx="19.44" cy="31.91" r="7.85"/><path class="cls-2" d="M13,31.91a7.85,7.85,0,0,1,7.13-7.82c-0.24,0-.48,0-0.72,0a7.85,7.85,0,1,0,0,15.7c0.24,0,.48,0,0.72,0A7.85,7.85,0,0,1,13,31.91Z"/><circle class="cls-3" cx="19.44" cy="31.91" r="7.85"/><circle class="cls-4" cx="16.21" cy="29.77" r="1.47"/><path class="cls-2" d="M15.87,29.77a1.47,1.47,0,0,1,.91-1.36,1.47,1.47,0,1,0,0,2.72A1.47,1.47,0,0,1,15.87,29.77Z"/><circle class="cls-4" cx="22.66" cy="29.77" r="1.47"/><path class="cls-2" d="M22.25,29.77a1.47,1.47,0,0,1,.94-1.37,1.47,1.47,0,1,0,0,2.74A1.47,1.47,0,0,1,22.25,29.77Z"/><circle class="cls-3" cx="16.21" cy="29.77" r="1.47"/><circle class="cls-3" cx="22.66" cy="29.77" r="1.47"/><line class="cls-3" x1="14.74" x2="24.14" y1="35.55" y2="35.55"/><g><rect class="cls-4" height="5.17" rx="2.4" ry="2.4" width="26.75" x="31.25" y="7.27"/><path class="cls-2" d="M55.6,10.45h-22A2.39,2.39,0,0,1,31.4,8.86a2.38,2.38,0,0,0-.15.81V10a2.4,2.4,0,0,0,2.4,2.4h22A2.4,2.4,0,0,0,58,10V9.66a2.38,2.38,0,0,0-.15-0.81A2.39,2.39,0,0,1,55.6,10.45Z"/><rect class="cls-3" height="5.17" rx="2.4" ry="2.4" width="26.75" x="31.25" y="7.27"/></g><g><rect class="cls-4" height="5.17" rx="2.4" ry="2.4" width="26.75" x="31.25" y="29.41"/><path class="cls-2" d="M55.6,32.59h-22A2.39,2.39,0,0,1,31.4,31a2.38,2.38,0,0,0-.15.81v0.38a2.4,2.4,0,0,0,2.4,2.4h22a2.4,2.4,0,0,0,2.4-2.4V31.81A2.38,2.38,0,0,0,57.85,31,2.39,2.39,0,0,1,55.6,32.59Z"/><rect class="cls-3" height="5.17" rx="2.4" ry="2.4" width="26.75" x="31.25" y="29.41"/></g><g><rect class="cls-4" height="5.17" rx="2.4" ry="2.4" width="26.75" x="31.25" y="51.39"/><path class="cls-2" d="M55.6,54.57h-22A2.39,2.39,0,0,1,31.4,53a2.38,2.38,0,0,0-.15.81v0.38a2.4,2.4,0,0,0,2.4,2.4h22a2.4,2.4,0,0,0,2.4-2.4V53.79A2.38,2.38,0,0,0,57.85,53,2.39,2.39,0,0,1,55.6,54.57Z"/><rect class="cls-3" height="5.17" rx="2.4" ry="2.4" width="26.75" x="31.25" y="51.39"/></g><path class="cls-1" d="M33.65,7.27H54a0,0,0,0,1,0,0v5.17a0,0,0,0,1,0,0H33.65a2.4,2.4,0,0,1-2.4-2.4V9.66a2.4,2.4,0,0,1,2.4-2.4Z"/><path class="cls-2" d="M31.39,8.78a2.5,2.5,0,0,0-.14.8V10a2.43,2.43,0,0,0,2.4,2.47H54v-2H33.65A2.4,2.4,0,0,1,31.39,8.78Z"/><path class="cls-3" d="M33.65,7.27H54a0,0,0,0,1,0,0v5.17a0,0,0,0,1,0,0H33.65a2.4,2.4,0,0,1-2.4-2.4V9.66a2.4,2.4,0,0,1,2.4-2.4Z"/><path class="cls-7" d="M33.65,29.41h11a0,0,0,0,1,0,0v5.17a0,0,0,0,1,0,0h-11a2.4,2.4,0,0,1-2.4-2.4V31.81A2.4,2.4,0,0,1,33.65,29.41Z"/><path class="cls-2" d="M31.39,31a2.37,2.37,0,0,0-.14.78v0.38a2.4,2.4,0,0,0,2.4,2.4h11V32.65h-11A2.39,2.39,0,0,1,31.39,31Z"/><path class="cls-3" d="M33.65,29.41h11a0,0,0,0,1,0,0v5.17a0,0,0,0,1,0,0h-11a2.4,2.4,0,0,1-2.4-2.4V31.81A2.4,2.4,0,0,1,33.65,29.41Z"/><path class="cls-5" d="M33.65,51.39h2.77a0,0,0,0,1,0,0v5.17a0,0,0,0,1,0,0H33.65a2.4,2.4,0,0,1-2.4-2.4V53.79A2.4,2.4,0,0,1,33.65,51.39Z"/><path class="cls-2" d="M31.39,53a2.37,2.37,0,0,0-.14.78v0.38a2.4,2.4,0,0,0,2.4,2.4h2.77V54.62H33.65A2.39,2.39,0,0,1,31.39,53Z"/><path class="cls-3" d="M33.65,51.39h2.77a0,0,0,0,1,0,0v5.17a0,0,0,0,1,0,0H33.65a2.4,2.4,0,0,1-2.4-2.4V53.79A2.4,2.4,0,0,1,33.65,51.39Z"/><path class="cls-3" d="M23,58.64a3.73,3.73,0,0,0-7.2,0"/></svg>