<?xml version="1.0" ?><svg id="Layer_1" style="enable-background:new 0 0 48 48;" version="1.1" viewBox="0 0 48 48" xml:space="preserve" xmlns="http://www.w3.org/2000/svg" xmlns:xlink="http://www.w3.org/1999/xlink"><style type="text/css">
	.st0{fill:#CCCCCC;}
	.st1{fill:#E6E6E6;}
	.st2{fill:#92D3FF;}
	.st3{fill:#FFA769;}
	.st4{fill:#ED7B72;}
	.st5{fill:#ED7161;}
	.st6{fill:#666666;}
	.st7{fill:#99C23E;}
	.st8{fill:#515151;}
	.st9{fill:#B3B3B3;}
	.st10{fill:#FFCC66;}
	.st11{fill:#E7B95D;}
	.st12{fill:#3AB7FC;}
	.st13{fill:#D56455;}
	.st14{fill:#FFFFFF;}
	.st15{fill:#333333;}
	.st16{fill:#54BBFF;}
	.st17{fill:#BF8E5F;}
	.st18{fill:#A57B51;}
	.st19{fill:#88C057;}
	.st20{fill:#638B3F;}
	.st21{fill:#535556;}
	.st22{fill:#98D862;}
	.st23{fill:#A2E667;}
	.st24{fill:#48A0DC;}
	.st25{opacity:0.6;fill:#FFFFFF;}
	.st26{fill:none;}
	.st27{fill:#69C6F9;}
	.st28{fill:#FF8833;}
	.st29{fill:#9A7BAA;}
	.st30{fill:#E5E8EC;}
	.st31{fill:#53C6F9;}
</style><g id="XMLID_984_"><g id="XMLID_821_"><path class="st16" d="M45.6,21c1.7,0.1,2.8,1.9,2.2,3.5l-4.3,11c-1.1,2.9-3.3,5.3-6.2,6.7l-4.5,2.2    c-4.2,2.1-9.3,0.1-11-4.3L20,35.5c-1.2-2.9-1.2-6.2,0-9.1l4.3-11c0.6-1.6,2.6-2.2,4-1.1C32.7,17.8,40,20.6,45.6,21z" id="XMLID_987_"/><g id="XMLID_935_"><path class="st14" d="M42.1,31.1c-0.9-2.9-4.8-4.4-7.4-2.9C36.9,24,43.4,26.5,42.1,31.1z" id="XMLID_988_"/><path class="st14" d="M36.6,35.2c-3.9,2.3-9.8,0.1-11.2-4.3C23.5,37.8,33.3,41.6,36.6,35.2z" id="XMLID_982_"/><path class="st14" d="M31.5,26.9c-0.9-2.9-4.8-4.4-7.4-2.9C26.2,19.8,32.7,22.4,31.5,26.9z" id="XMLID_981_"/></g></g><g id="XMLID_983_"><path class="st5" d="M23.9,2.8c1.8-0.6,3.6,0.8,3.6,2.7v12.8c0,3.4-1.3,6.7-3.6,9.3l-3.7,4    c-3.4,3.8-9.4,3.8-12.8,0l-3.7-4C1.3,25.1,0,21.8,0,18.3V5.5c0-1.9,1.8-3.2,3.6-2.7C9.5,4.7,18,4.7,23.9,2.8z" id="XMLID_1090_"/><path class="st14" d="M24.2,10.5c-2,2.6-6.6,2.6-8.6,0C16.1,15.7,23.7,15.7,24.2,10.5z" id="XMLID_995_"/><path class="st14" d="M20.2,26.6c-3.1-3.9-9.9-4-13,0C8,18.8,19.5,18.9,20.2,26.6z" id="XMLID_993_"/><path class="st14" d="M11.8,10.5c-2,2.6-6.6,2.6-8.6,0C3.7,15.7,11.3,15.7,11.8,10.5z" id="XMLID_986_"/></g></g></svg>