<?xml version="1.0" ?><svg data-name="Layer 42" id="Layer_42" viewBox="0 0 64 64" xmlns="http://www.w3.org/2000/svg"><defs><style>
      .cls-1 {
        fill: #43cb8e;
      }

      .cls-1, .cls-3, .cls-4, .cls-5, .cls-6 {
        stroke: #000;
        stroke-linecap: round;
        stroke-linejoin: round;
      }

      .cls-2 {
        opacity: 0.1;
      }

      .cls-3 {
        fill: none;
      }

      .cls-4 {
        fill: #dfebfa;
      }

      .cls-5 {
        fill: #ff656f;
      }

      .cls-6 {
        fill: #fee55a;
      }
    </style></defs><title/><circle class="cls-1" cx="32" cy="18.98" r="14.98"/><path class="cls-2" d="M21.07,19A15,15,0,0,1,34,4.15,15,15,0,1,0,34,33.8,15,15,0,0,1,21.07,19Z"/><circle class="cls-3" cx="32" cy="18.98" r="14.98"/><g><path class="cls-3" d="M23,16.55l0.11-.17a3.19,3.19,0,0,1,5.51.17h0"/><path class="cls-3" d="M35.34,16.55l0.11-.17a3.19,3.19,0,0,1,5.51.17h0"/></g><path class="cls-4" d="M23,22.49H41s-2.4,6.85-9,6.85S23,22.49,23,22.49Z"/><path class="cls-2" d="M27.29,22.49H23s2.4,6.85,9,6.85a8.65,8.65,0,0,0,2.13-.27C29.17,27.83,27.29,22.49,27.29,22.49Z"/><path class="cls-3" d="M23,22.49H41s-2.4,6.85-9,6.85S23,22.49,23,22.49Z"/><circle class="cls-5" cx="17.02" cy="45.02" r="14.98"/><path class="cls-2" d="M17,30a15.09,15.09,0,0,0-1.67.1,15,15,0,0,1,0,29.76A15,15,0,1,0,17,30Z"/><circle class="cls-3" cx="17.02" cy="45.02" r="14.98"/><g><path class="cls-3" d="M26,40.93l-0.11.17a3.19,3.19,0,0,1-5.51-.17h0"/><path class="cls-3" d="M13.68,40.93l-0.11.17a3.19,3.19,0,0,1-5.51-.17h0"/></g><circle class="cls-6" cx="46.98" cy="45.02" r="14.98"/><path class="cls-2" d="M35.34,45A15,15,0,0,1,48.65,30.15a15,15,0,1,0,0,29.76A15,15,0,0,1,35.34,45Z"/><circle class="cls-3" cx="46.98" cy="45.02" r="14.98"/><circle class="cls-4" cx="40.83" cy="40.94" r="2.81"/><path class="cls-2" d="M40.32,40.94A2.81,2.81,0,0,1,42,38.38a2.81,2.81,0,1,0,0,5.11A2.81,2.81,0,0,1,40.32,40.94Z"/><circle class="cls-3" cx="40.83" cy="40.94" r="2.81"/><circle class="cls-4" cx="53.13" cy="40.94" r="2.81"/><path class="cls-2" d="M52.49,40.94a2.81,2.81,0,0,1,1.73-2.59,2.81,2.81,0,1,0,0,5.18A2.81,2.81,0,0,1,52.49,40.94Z"/><circle class="cls-3" cx="53.13" cy="40.94" r="2.81"/><line class="cls-3" x1="38.02" x2="55.94" y1="51.97" y2="51.97"/><path class="cls-3" d="M23.89,53.94S22.41,48.69,17,48.69s-6.86,5.25-6.86,5.25"/></svg>