<?xml version="1.0" ?><svg data-name="Layer 19" id="Layer_19" viewBox="0 0 64 64" xmlns="http://www.w3.org/2000/svg"><defs><style>
      .cls-1 {
        fill: #43cb8e;
      }

      .cls-1, .cls-3, .cls-4, .cls-5, .cls-6 {
        stroke: #000;
        stroke-linecap: round;
        stroke-linejoin: round;
      }

      .cls-2 {
        opacity: 0.1;
      }

      .cls-3 {
        fill: none;
      }

      .cls-4 {
        fill: #dfebfa;
      }

      .cls-5 {
        fill: #ff656f;
      }

      .cls-6 {
        fill: #fee55a;
      }
    </style></defs><title/><circle class="cls-1" cx="48.36" cy="26.75" r="6.82"/><path class="cls-2" d="M43.75,26.75c0-3.31,2-6.07,4.61-6.69a4.84,4.84,0,0,0-1.11-.13c-3.16,0-5.71,3.05-5.71,6.82s2.56,6.82,5.71,6.82a4.84,4.84,0,0,0,1.11-.13C45.74,32.82,43.75,30.06,43.75,26.75Z"/><circle class="cls-3" cx="48.36" cy="26.75" r="6.82"/><g><path class="cls-3" d="M44.28,25.64l0-.08a1.45,1.45,0,0,1,2.51.08h0"/><path class="cls-3" d="M49.88,25.64l0-.08a1.45,1.45,0,0,1,2.51.08h0"/></g><path class="cls-4" d="M44.28,28.35h8.16s-1.09,3.12-4.08,3.12S44.28,28.35,44.28,28.35Z"/><path class="cls-2" d="M46.34,28.35H44.28s1.09,3.12,4.08,3.12a4,4,0,0,0,1-.13A5,5,0,0,1,46.34,28.35Z"/><path class="cls-3" d="M44.28,28.35h8.16s-1.09,3.12-4.08,3.12S44.28,28.35,44.28,28.35Z"/><circle class="cls-5" cx="15.25" cy="26.75" r="6.82"/><path class="cls-2" d="M10.53,26.75A6.7,6.7,0,0,1,15.87,20a6,6,0,0,0-1.05-.1,6.62,6.62,0,0,0-6.39,6.82,6.62,6.62,0,0,0,6.39,6.82,6,6,0,0,0,1.05-.1A6.7,6.7,0,0,1,10.53,26.75Z"/><circle class="cls-3" cx="15.25" cy="26.75" r="6.82"/><g><path class="cls-3" d="M19.33,24.88l0,0.08a1.45,1.45,0,0,1-2.51-.08h0"/><path class="cls-3" d="M13.72,24.88l0,0.08a1.45,1.45,0,0,1-2.51-.08h0"/></g><circle class="cls-6" cx="31.76" cy="26.55" r="6.82"/><path class="cls-2" d="M27.1,26.55c0-3.29,1.8-6,4.19-6.67a4.14,4.14,0,0,0-1.08-.15c-2.91,0-5.27,3.05-5.27,6.82s2.36,6.82,5.27,6.82a4.14,4.14,0,0,0,1.08-.15C28.9,32.58,27.1,29.83,27.1,26.55Z"/><circle class="cls-6" cx="28.95" cy="24.69" r="1.28"/><circle class="cls-6" cx="34.56" cy="24.69" r="1.28"/><line class="cls-6" x1="27.67" x2="35.84" y1="29.71" y2="29.71"/><circle class="cls-3" cx="31.76" cy="26.55" r="6.82"/><circle class="cls-4" cx="28.95" cy="24.69" r="1.28"/><path class="cls-2" d="M28.78,24.69a1.3,1.3,0,0,1,.55-1.08,1,1,0,0,0-.55-0.2,1.29,1.29,0,0,0,0,2.56,1,1,0,0,0,.55-0.2A1.3,1.3,0,0,1,28.78,24.69Z"/><circle class="cls-4" cx="34.56" cy="24.69" r="1.28"/><path class="cls-2" d="M34.43,24.69A1.29,1.29,0,0,1,35,23.6a1,1,0,0,0-.57-0.2,1.29,1.29,0,0,0,0,2.56,1,1,0,0,0,.57-0.2A1.29,1.29,0,0,1,34.43,24.69Z"/><circle class="cls-3" cx="28.95" cy="24.69" r="1.28"/><circle class="cls-3" cx="34.56" cy="24.69" r="1.28"/><line class="cls-3" x1="27.67" x2="35.84" y1="29.71" y2="29.71"/><path class="cls-3" d="M18.37,30.8a3.34,3.34,0,0,0-3.13-2.39,3.34,3.34,0,0,0-3.13,2.39"/><path class="cls-5" d="M10.08,40H23.94a0,0,0,0,1,0,0v4.16a0,0,0,0,1,0,0H10.08a1.85,1.85,0,0,1-1.85-1.85V41.89A1.85,1.85,0,0,1,10.08,40Z"/><path class="cls-2" d="M8.42,41.42a1.5,1.5,0,0,0-.19.72v0.41a1.76,1.76,0,0,0,1.85,1.65H23.94V42.35H10.08A1.88,1.88,0,0,1,8.42,41.42Z"/><path class="cls-3" d="M10.08,40H23.94a0,0,0,0,1,0,0v4.16a0,0,0,0,1,0,0H10.08a1.85,1.85,0,0,1-1.85-1.85V41.89A1.85,1.85,0,0,1,10.08,40Z"/><path class="cls-1" d="M39.66,40H53.53a1.85,1.85,0,0,1,1.85,1.85v0.46a1.85,1.85,0,0,1-1.85,1.85H39.66a0,0,0,0,1,0,0V40A0,0,0,0,1,39.66,40Z"/><path class="cls-2" d="M53.53,42.35H39.66v1.86H53.53a1.76,1.76,0,0,0,1.85-1.65V42.14a1.5,1.5,0,0,0-.19-0.72A1.88,1.88,0,0,1,53.53,42.35Z"/><path class="cls-3" d="M39.66,40H53.53a1.85,1.85,0,0,1,1.85,1.85v0.46a1.85,1.85,0,0,1-1.85,1.85H39.66a0,0,0,0,1,0,0V40A0,0,0,0,1,39.66,40Z"/><rect class="cls-6" height="4.16" width="15.72" x="23.94" y="40.04"/><rect class="cls-2" height="1.86" width="15.72" x="23.94" y="42.35"/><rect class="cls-3" height="4.16" width="15.72" x="23.94" y="40.04"/><line class="cls-3" x1="59.85" x2="59.85" y1="39.98" y2="44.27"/><line class="cls-3" x1="57.7" x2="62" y1="42.13" y2="42.13"/><line class="cls-3" x1="2" x2="6.3" y1="42.13" y2="42.13"/></svg>