<?xml version="1.0" ?><svg id="Layer_1" style="enable-background:new 0 0 48 48;" version="1.1" viewBox="0 0 48 48" xml:space="preserve" xmlns="http://www.w3.org/2000/svg" xmlns:xlink="http://www.w3.org/1999/xlink"><style type="text/css">
	.st0{fill:#CCCCCC;}
	.st1{fill:#E6E6E6;}
	.st2{fill:#92D3FF;}
	.st3{fill:#FFA769;}
	.st4{fill:#ED7B72;}
	.st5{fill:#ED7161;}
	.st6{fill:#666666;}
	.st7{fill:#99C23E;}
	.st8{fill:#515151;}
	.st9{fill:#B3B3B3;}
	.st10{fill:#FFCC66;}
	.st11{fill:#E7B95D;}
	.st12{fill:#3AB7FC;}
	.st13{fill:#D56455;}
	.st14{fill:#FFFFFF;}
	.st15{fill:#333333;}
	.st16{fill:#54BBFF;}
	.st17{fill:#BF8E5F;}
	.st18{fill:#A57B51;}
	.st19{fill:#88C057;}
	.st20{fill:#638B3F;}
	.st21{fill:#535556;}
	.st22{fill:#98D862;}
	.st23{fill:#A2E667;}
	.st24{fill:#48A0DC;}
	.st25{opacity:0.6;fill:#FFFFFF;}
	.st26{fill:none;}
	.st27{fill:#69C6F9;}
	.st28{fill:#FF8833;}
	.st29{fill:#9A7BAA;}
	.st30{fill:#E5E8EC;}
	.st31{fill:#53C6F9;}
</style><g id="XMLID_1792_"><g id="XMLID_1799_"><path class="st9" d="M20.7,40.8c-2.5,0-4.5-2.4-4.5-5.4V12.7c0-0.7,0.6-1.3,1.3-1.3c0.7,0,1.3,0.6,1.3,1.3v22.7    c0,1.5,0.9,2.8,1.9,2.8s1.9-1.3,1.9-2.8V19.5c0-0.7,0.6-1.3,1.3-1.3c0.7,0,1.3,0.6,1.3,1.3v15.9C25.2,38.4,23.2,40.8,20.7,40.8z" id="XMLID_1801_"/></g><path class="st6" d="M37.2,2.7L37,2.5c-3.4-3.4-8.8-3.4-12.2,0l-14,14c-3.4,3.4-3.4,8.8,0,12.2l0.2,0.2   c3.4,3.4,8.8,3.4,12.2,0l14-14C40.6,11.5,40.6,6.1,37.2,2.7z" id="XMLID_1798_"/><path class="st10" d="M37.2,2.7L37,2.5c-3.4-3.4-8.8-3.4-12.2,0L17,10.3l12.4,12.4l7.8-7.8   C40.6,11.5,40.6,6.1,37.2,2.7z" id="XMLID_1805_"/><path class="st1" d="M29.8,23.1L16.7,10c-0.8-0.8-2-0.8-2.8,0c-0.8,0.8-0.8,2,0,2.8L27,25.9c0.8,0.8,2,0.8,2.8,0   C30.5,25.1,30.5,23.8,29.8,23.1z" id="XMLID_1796_"/><g id="XMLID_1795_"><path class="st9" d="M24,19.2c-0.7,0-1.3,0.6-1.3,1.3v14.9c0,1.5-0.9,2.8-1.9,2.8c-0.1,0-0.1,0-0.2,0v2.6    c0.1,0,0.1,0,0.2,0c2.5,0,4.5-2.4,4.5-5.4V20.5C25.2,19.8,24.7,19.2,24,19.2z" id="XMLID_1824_"/></g><path class="st9" d="M29.5,44.1h-7.2v-5h-3.1v5H12c-1.1,0-1.9,0.9-1.9,1.9S10.9,48,12,48h17.4   c1.1,0,1.9-0.9,1.9-1.9S30.5,44.1,29.5,44.1z" id="XMLID_1797_"/></g></svg>