<?xml version="1.0" ?><!DOCTYPE svg  PUBLIC '-//W3C//DTD SVG 1.1//EN'  'http://www.w3.org/Graphics/SVG/1.1/DTD/svg11.dtd'><svg enable-background="new 0 0 512 512" height="512px" id="Dollar_Coin" version="1.1" viewBox="0 0 512 512" width="512px" xml:space="preserve" xmlns="http://www.w3.org/2000/svg" xmlns:xlink="http://www.w3.org/1999/xlink"><path d="M256,0C114.615,0,0,114.615,0,256c0,141.386,114.615,256,256,256  c21.572,0,42.515-2.682,62.528-7.706c91.451-22.958,163.362-95.104,185.99-186.685C509.396,297.873,512,277.242,512,256  C512,114.615,397.386,0,256,0z" fill="#63C5B6" id="Background"/><path d="M504.519,317.608L348.813,161.902L173.485,359.251l145.043,145.043  C409.979,481.336,481.891,409.189,504.519,317.608z" id="Shadow" opacity="0.1"/><g id="Dollar_Coin_1_"><g id="Plate"><circle cx="256" cy="256" fill="#EAB763" r="132.176"/><circle cx="256" cy="256" fill="#FFE078" r="114.553"/></g><path d="M303.29,266.82c-3.68-5.46-9.383-9.97-17.105-13.531c-5.311-2.413-15.101-5.234-29.37-8.463   c-14.271-3.228-23.095-6.381-26.474-9.458c-3.439-3.077-5.159-7-5.159-11.767c0-5.49,2.428-10.182,7.286-14.074   c4.856-3.892,12.595-5.838,23.216-5.838c10.196,0,17.905,2.142,23.125,6.426c5.218,4.285,8.282,10.62,9.187,19.006l16.834-1.267   c-0.302-7.784-2.475-14.753-6.517-20.908c-4.043-6.154-9.82-10.816-17.332-13.983c-4.945-2.085-10.397-3.48-16.35-4.192v-14.095   h-15.903v13.798c-6.511,0.547-12.552,1.964-18.116,4.263c-7.301,3.019-12.852,7.438-16.653,13.26   c-3.802,5.823-5.702,12.083-5.702,18.78c0,6.095,1.553,11.601,4.661,16.518c3.107,4.918,7.829,9.037,14.165,12.354   c4.888,2.595,13.425,5.356,25.614,8.282c12.188,2.928,20.062,5.085,23.623,6.472c5.551,2.112,9.533,4.722,11.946,7.829   c2.414,3.107,3.622,6.742,3.622,10.906c0,4.104-1.254,7.89-3.757,11.358c-2.505,3.47-6.321,6.2-11.449,8.191   c-5.13,1.991-11.042,2.986-17.74,2.986c-7.543,0-14.332-1.312-20.364-3.937c-6.034-2.625-10.485-6.064-13.35-10.318   c-2.867-4.255-4.692-9.698-5.476-16.337l-16.563,1.448c0.24,8.87,2.67,16.821,7.286,23.85c4.616,7.029,10.981,12.294,19.098,15.793   c5.492,2.368,11.88,3.933,19.156,4.698v12.449h15.903v-12.061c7.544-0.5,14.443-2.179,20.693-5.042   c7.571-3.469,13.38-8.326,17.423-14.571c4.042-6.245,6.064-12.898,6.064-19.957C308.812,278.572,306.971,272.282,303.29,266.82z" fill="#F7941E" id="Coin"/></g></svg>