<?xml version="1.0" ?><svg style="enable-background:new 0 0 59.332 59.88;" version="1.1" viewBox="0 0 59.332 59.88" xml:space="preserve" xmlns="http://www.w3.org/2000/svg" xmlns:xlink="http://www.w3.org/1999/xlink"><g id="weather_forecast_season_cloud_moon_sky"><g><path d="M44.506,0.88c-0.001,0-0.003,0-0.004,0c-0.359,0-0.691-0.116-0.869,0.196    c-0.179,0.313-0.174,0.391,0.011,0.7c1.196,2,1.828,4.157,1.828,6.466c0,7.102-5.775,12.637-12.927,12.637    c-0.001,0-0.003,0-0.004,0c-0.36,0-0.692,0.434-0.87,0.748c-0.178,0.312-0.173,0.938,0.012,1.247    c2.719,4.55,7.492,7.267,12.769,7.267c8.205,0,14.88-6.426,14.88-14.631C59.331,7.336,52.681,0.88,44.506,0.88z" style="fill:#FCE674;"/><path d="M51.332,43.88h-3.21c0.026,0,0.041-0.474,0.042-0.779c0.018-5.669-3.872-10.643-9.247-11.827    c-2.713-0.599-5.379-0.346-7.769,0.724c-3.513-4.696-9.207-7.349-15.113-6.956C7.672,25.595,0.808,32.378,0.069,40.821    c-0.41,4.681,1.027,9.213,4.049,12.76c3.067,3.602,7.38,5.775,12.21,6.123l35.005,0.177c4.411,0,8-3.589,8-8    C59.332,47.469,55.743,43.88,51.332,43.88z" style="fill:#77B9C8;"/><path d="M16.737,22.912c-0.118-0.362-0.431-0.626-0.808-0.681l-3.535-0.514l-1.581-3.204    c-0.336-0.684-1.457-0.684-1.793,0l-1.581,3.204l-3.535,0.514c-0.377,0.055-0.689,0.318-0.808,0.681    c-0.117,0.361-0.019,0.759,0.253,1.024l2.559,2.493l-0.604,3.523c-0.064,0.375,0.09,0.754,0.397,0.977    c0.309,0.225,0.719,0.254,1.053,0.076l3.163-1.662l3.163,1.662c0.146,0.077,0.306,0.115,0.465,0.115    c0.207,0,0.414-0.064,0.588-0.191c0.308-0.224,0.462-0.602,0.397-0.977l-0.604-3.523l2.559-2.493    C16.756,23.67,16.854,23.273,16.737,22.912z" style="fill:#FCE674;"/><path d="M30.737,4.912c-0.118-0.362-0.431-0.626-0.808-0.681l-3.535-0.514l-1.581-3.204    c-0.336-0.684-1.457-0.684-1.793,0l-1.581,3.204l-3.535,0.514c-0.377,0.055-0.689,0.318-0.808,0.681    c-0.117,0.361-0.019,0.759,0.253,1.024l2.559,2.493l-0.604,3.523c-0.064,0.375,0.09,0.754,0.397,0.977    c0.308,0.225,0.719,0.255,1.053,0.076l3.163-1.662l3.163,1.662c0.146,0.077,0.306,0.115,0.465,0.115    c0.207,0,0.414-0.064,0.588-0.191c0.308-0.224,0.462-0.602,0.397-0.977l-0.604-3.523l2.559-2.493    C30.756,5.67,30.854,5.273,30.737,4.912z" style="fill:#FCE674;"/></g></g><g id="Layer_1"/></svg>