<?xml version="1.0" ?><!DOCTYPE svg  PUBLIC '-//W3C//DTD SVG 1.1//EN'  'http://www.w3.org/Graphics/SVG/1.1/DTD/svg11.dtd'><svg enable-background="new 0 0 512 512" height="512px" id="Layer_1" version="1.1" viewBox="0 0 512 512" width="512px" xml:space="preserve" xmlns="http://www.w3.org/2000/svg" xmlns:xlink="http://www.w3.org/1999/xlink"><path d="M491.466,204.662H444.22c-4.132-14.529-9.915-28.35-17.123-41.268l33.425-33.435  c5.168-5.167,5.168-13.544,0-18.701L404.11,54.845c-5.157-5.167-13.534-5.167-18.702,0L351.974,88.27  c-12.919-7.208-26.74-12.991-41.268-17.123V23.901c0-7.3-5.916-13.226-13.226-13.226h-79.768c-7.31,0-13.226,5.926-13.226,13.226  v47.246c-14.529,4.132-28.35,9.915-41.268,17.123l-33.435-33.425c-5.168-5.167-13.544-5.167-18.702,0l-56.412,56.412  c-5.168,5.157-5.168,13.534,0,18.701l33.425,33.435c-7.208,12.919-12.991,26.74-17.123,41.268H23.724  c-7.3,0-13.226,5.916-13.226,13.226v79.768c0,7.31,5.926,13.226,13.226,13.226H70.97c4.132,14.529,9.915,28.35,17.123,41.268  l-33.425,33.435c-5.168,5.168-5.168,13.544,0,18.701l56.412,56.412c5.157,5.168,13.534,5.168,18.702,0l33.435-33.425  c12.919,7.208,26.74,12.991,41.268,17.122v47.246c0,7.3,5.916,13.226,13.226,13.226h79.768c7.31,0,13.226-5.926,13.226-13.226  v-47.246c14.529-4.132,28.35-9.915,41.268-17.122l33.435,33.425c5.168,5.168,13.544,5.168,18.702,0l56.412-56.412  c5.168-5.157,5.168-13.534,0-18.701l-33.425-33.435c7.208-12.919,12.991-26.74,17.123-41.268h47.246  c7.3,0,13.226-5.916,13.226-13.226v-79.768C504.692,210.578,498.766,204.662,491.466,204.662z M257.595,327.841  c-38.633,0-70.069-31.436-70.069-70.069s31.436-70.069,70.069-70.069s70.069,31.436,70.069,70.069S296.228,327.841,257.595,327.841z  " fill="#4AA9CE"/><path d="M257.595,156.944c-55.592,0-100.828,45.236-100.828,100.828c0,55.592,45.236,100.828,100.828,100.828  s100.828-45.236,100.828-100.828C358.423,202.18,313.187,156.944,257.595,156.944z M257.595,327.841  c-38.633,0-70.069-31.436-70.069-70.069s31.436-70.069,70.069-70.069s70.069,31.436,70.069,70.069S296.228,327.841,257.595,327.841z  " fill="#2A5363"/><path d="M257.595,167.197c53.873,0,98.02,42.482,100.699,95.702c0.085-1.698,0.129-3.407,0.129-5.126  c0-55.592-45.236-100.828-100.828-100.828S156.767,202.18,156.767,257.772c0,1.719,0.044,3.428,0.129,5.126  C159.575,209.679,203.722,167.197,257.595,167.197z" fill="#2A5363"/><path d="M257.595,348.347c-53.873,0-98.02-42.482-100.699-95.702c-0.085,1.698-0.129,3.407-0.129,5.127  c0,55.592,45.236,100.828,100.828,100.828s100.828-45.236,100.828-100.828c0-1.719-0.044-3.428-0.129-5.127  C355.615,305.866,311.467,348.347,257.595,348.347z" fill="#2A5363"/></svg>