<?xml version="1.0" ?><!DOCTYPE svg  PUBLIC '-//W3C//DTD SVG 1.1//EN'  'http://www.w3.org/Graphics/SVG/1.1/DTD/svg11.dtd'><svg height="520px" style="enable-background:new 0 0 520 520;" version="1.1" viewBox="0 0 520 520" width="520px" xml:space="preserve" xmlns="http://www.w3.org/2000/svg" xmlns:xlink="http://www.w3.org/1999/xlink"><g id="_x37_4_x2C__Pillow_x2C__Relax_x2C__Sleep"><g><path d="M342.592,102.12c-9.21,0-17.27,4.94-21.66,12.32c-33.189-16.79-76.26-26.94-123.34-26.94    c-47.09,0-90.16,10.15-123.35,26.94c-4.39-7.38-12.45-12.32-21.65-12.32c-13.92,0-25.2,11.28-25.2,25.19s11.28,25.19,25.2,25.19    v95.08c-11.62,2.25-20.39,12.46-20.39,24.729c0,13.91,11.28,25.19,25.189,25.19c8.32,0,15.69-4.03,20.28-10.24    c26.61,12.84,59.2,21.49,94.92,24.271V272.5c-13.92,0-25.2-11.28-25.2-25.19c0-13.91,11.28-25.19,25.2-25.19    c9.2,0,17.261,4.94,21.65,12.32c33.189-16.79,76.26-26.94,123.35-26.94c8.48,0,16.82,0.33,25,0.97V152.5    c13.91,0,25.19-11.28,25.19-25.19S356.502,102.12,342.592,102.12z" style="fill:#FFEC6C;"/><path d="M492.592,392.31c-1-26.81-28.449-25.029-30-24.729V272.5c13.91,0,25.19-11.28,25.19-25.19    c0-13.91-11.28-25.19-25.19-25.19c-9.21,0-17.27,4.94-21.66,12.32c-27.209-13.77-61.069-23.07-98.34-25.97    c-8.18-0.64-16.52-0.97-25-0.97c-47.09,0-90.16,10.15-123.35,26.94c-4.39-7.38-12.45-12.32-21.65-12.32    c-13.92,0-25.2,11.28-25.2,25.19c0,13.91,11.28,25.19,25.2,25.19v39.03v56.05c-11.62,2.25-20.39,12.46-20.39,24.729    c0,13.91,11.28,25.19,25.189,25.19c8.32,0,15.69-4.03,20.28-10.24c32.7,15.78,74.44,25.24,119.92,25.24    c48.951,0,93.57-10.97,127.25-28.97c4.131,8.279,12.67,13.97,22.551,13.97C481.313,417.5,493.103,406.21,492.592,392.31z" style="fill:#FDCDC7;"/><path d="M407.092,352.5c5.801,0,10.5,4.7,10.5,10.48c0,10.489-10.5,16.46-20.979,26.939    c-10.489-10.479-20.97-16.45-20.97-26.939c0-5.78,4.689-10.48,10.48-10.48c5.239,0,7.869,2.62,10.489,7.86    C399.232,355.12,401.853,352.5,407.092,352.5z" style="fill:#FB2B3A;"/><path d="M407.092,249.64c5.801,0,10.5,4.69,10.5,10.48c0,10.479-10.5,16.45-20.979,26.939    c-10.489-10.489-20.97-16.46-20.97-26.939c0-5.79,4.689-10.48,10.48-10.48c5.239,0,7.869,2.62,10.489,7.86    C399.232,252.26,401.853,249.64,407.092,249.64z" style="fill:#FB2B3A;"/><path d="M334.043,305.08c5.799,0,10.489,4.7,10.489,10.479c0,10.49-10.489,16.46-20.98,26.94    c-10.479-10.48-20.96-16.45-20.96-26.94c0-5.779,4.69-10.479,10.48-10.479c5.24,0,7.859,2.62,10.479,7.86    C326.173,307.7,328.793,305.08,334.043,305.08z" style="fill:#FB2B3A;"/><path d="M262.092,352.5c5.801,0,10.5,4.7,10.5,10.48c0,10.489-10.5,16.46-20.979,26.939    c-10.49-10.479-20.971-16.45-20.971-26.939c0-5.78,4.69-10.48,10.48-10.48c5.24,0,7.86,2.62,10.49,7.86    C254.232,355.12,256.853,352.5,262.092,352.5z" style="fill:#FB2B3A;"/><path d="M262.092,249.64c5.801,0,10.5,4.69,10.5,10.48c0,10.479-10.5,16.45-20.979,26.939    c-10.49-10.489-20.971-16.46-20.971-26.939c0-5.79,4.69-10.48,10.48-10.48c5.24,0,7.86,2.62,10.49,7.86    C254.232,252.26,256.853,249.64,262.092,249.64z" style="fill:#FB2B3A;"/><path d="M427.592,107.5c11.04,0,20,8.95,20,20s-8.96,20-20,20c-11.049,0-20-8.95-20-20    S416.543,107.5,427.592,107.5z" style="fill:#08B772;"/><circle cx="77.592" cy="417.5" r="35" style="fill:#08B772;"/><path d="M251.063,152.63c5.07,22.49-9.04,44.83-31.53,49.91c-19.46,4.39-38.79-5.59-46.94-22.91    c7.69,3.18,16.4,4.12,25.13,2.15c22.49-5.07,36.61-27.42,31.54-49.91c-0.689-3.04-1.699-5.92-2.97-8.62    C238.392,128.26,247.962,138.88,251.063,152.63z" style="fill:#3F4751;"/><path d="M460.092,52.5c4.141,0,7.5,3.36,7.5,7.5s-3.359,7.5-7.5,7.5c-4.149,0-7.5-3.36-7.5-7.5S455.942,52.5,460.092,52.5z"/><path d="M455.092,192.5c4.141,0,7.5,3.36,7.5,7.5s-3.359,7.5-7.5,7.5c-4.149,0-7.5-3.36-7.5-7.5S450.942,192.5,455.092,192.5z"/><path d="M435.092,452.5c4.141,0,7.5,3.36,7.5,7.5s-3.359,7.5-7.5,7.5c-4.149,0-7.5-3.36-7.5-7.5S430.942,452.5,435.092,452.5z"/><path d="M385.092,317.5c4.141,0,7.5,3.36,7.5,7.5s-3.359,7.5-7.5,7.5c-4.149,0-7.5-3.36-7.5-7.5S380.942,317.5,385.092,317.5z"/><path d="M335.092,252.5c4.141,0,7.5,3.36,7.5,7.5c0,4.14-3.359,7.5-7.5,7.5c-4.149,0-7.5-3.36-7.5-7.5    C327.592,255.86,330.942,252.5,335.092,252.5z"/><path d="M330.092,372.5c4.141,0,7.5,3.36,7.5,7.5s-3.359,7.5-7.5,7.5c-4.149,0-7.5-3.36-7.5-7.5S325.942,372.5,330.092,372.5z"/><path d="M290.092,47.5c4.141,0,7.5,3.36,7.5,7.5s-3.359,7.5-7.5,7.5c-4.149,0-7.5-3.36-7.5-7.5S285.942,47.5,290.092,47.5z"/><path d="M255.092,312.5c4.14,0,7.5,3.36,7.5,7.5s-3.359,7.5-7.5,7.5c-4.15,0-7.5-3.36-7.5-7.5S250.942,312.5,255.092,312.5z"/><path d="M210.092,457.5c4.141,0,7.5,3.36,7.5,7.5s-3.359,7.5-7.5,7.5c-4.149,0-7.5-3.36-7.5-7.5S205.942,457.5,210.092,457.5z"/><path d="M85.092,327.5c4.141,0,7.5,3.36,7.5,7.5s-3.359,7.5-7.5,7.5c-4.149,0-7.5-3.36-7.5-7.5S80.942,327.5,85.092,327.5z"/><path d="M80.092,62.5c4.141,0,7.5,3.36,7.5,7.5s-3.359,7.5-7.5,7.5c-4.149,0-7.5-3.36-7.5-7.5S75.942,62.5,80.092,62.5z"/><path d="M172.598,316.53c-0.131,0-0.262-0.005-0.394-0.015c-33.953-2.644-66.087-10.618-93.219-23.109    c-5.644,5.754-13.453,9.094-21.594,9.094c-16.646,0-30.189-13.543-30.189-30.19c0-13.016,8.36-24.432,20.39-28.558v-86.665    c-14.282-2.388-25.2-14.832-25.2-29.776c0-16.647,13.548-30.19,30.2-30.19c9.021,0,17.573,4.106,23.258,10.954    C110.263,91.562,153.296,82.5,197.592,82.5c44.29,0,87.319,9.062,121.733,25.574c5.686-6.847,14.241-10.954,23.267-10.954    c16.647,0,30.19,13.543,30.19,30.19c0,14.944-10.914,27.387-25.19,29.776v51.384c0,2.761-2.238,5-5,5c-2.761,0-5-2.239-5-5V152.5    c0-2.761,2.239-5,5-5c11.133,0,20.19-9.057,20.19-20.19s-9.058-20.19-20.19-20.19c-7.086,0-13.738,3.784-17.362,9.876    c-1.345,2.26-4.21,3.092-6.554,1.905C285.02,101.876,242.019,92.5,197.592,92.5c-44.433,0-87.438,9.376-121.093,26.401    c-2.346,1.187-5.211,0.354-6.555-1.905c-3.623-6.092-10.272-9.876-17.353-9.876c-11.139,0-20.2,9.057-20.2,20.19    s9.062,20.19,20.2,20.19c2.762,0,5,2.239,5,5v95.08c0,2.395-1.698,4.454-4.049,4.909c-9.469,1.833-16.341,10.169-16.341,19.821    c0,11.133,9.057,20.19,20.189,20.19c6.476,0,12.402-2.993,16.26-8.212c1.428-1.934,4.028-2.576,6.193-1.531    c26.737,12.901,58.943,21.127,93.136,23.788c2.753,0.215,4.811,2.62,4.597,5.373C177.373,314.539,175.183,316.53,172.598,316.53z"/><path d="M317.592,437.5c-42.854,0-84.794-8.538-118.606-24.094c-5.644,5.753-13.453,9.094-21.594,9.094    c-16.646,0-30.189-13.543-30.189-30.19c0-13.016,8.36-24.432,20.39-28.558v-86.666c-14.282-2.388-25.2-14.831-25.2-29.776    c0-16.647,13.548-30.19,30.2-30.19c9.021,0,17.573,4.106,23.258,10.954c34.413-16.513,77.446-25.574,121.742-25.574    c8.492,0,17.035,0.332,25.391,0.985c35.342,2.75,68.546,11.234,96.344,24.588c5.685-6.847,14.24-10.953,23.266-10.953    c16.647,0,30.19,13.543,30.19,30.19c0,14.944-10.914,27.386-25.19,29.776v85.429c14.429,0.815,29.225,8.91,29.997,29.608    c0.286,7.81-2.604,15.271-8.137,21.011c-5.737,5.952-13.778,9.366-22.06,9.366c-9.8,0-18.757-4.642-24.384-12.384    C407.965,427.799,363.646,437.5,317.592,437.5z M197.675,402.26c0.732,0,1.474,0.161,2.17,0.497    c33.064,15.956,74.882,24.743,117.747,24.743c46.297,0,90.65-10.079,124.894-28.38c1.191-0.636,2.59-0.764,3.875-0.354    c1.287,0.41,2.354,1.323,2.956,2.532c3.447,6.909,10.373,11.201,18.076,11.201c5.58,0,10.997-2.299,14.859-6.306    c3.632-3.768,5.529-8.634,5.344-13.701c-0.651-17.442-14.357-20.048-22.471-20.048c-0.916,0-1.527,0.047-1.714,0.067    c-1.423,0.234-2.884-0.155-4.001-1.076c-1.151-0.949-1.818-2.364-1.818-3.856V272.5c0-2.762,2.239-5,5-5    c11.133,0,20.19-9.057,20.19-20.19c0-11.133-9.058-20.19-20.19-20.19c-7.086,0-13.738,3.784-17.362,9.876    c-1.344,2.26-4.208,3.092-6.556,1.905c-27.404-13.869-60.764-22.668-96.469-25.446c-8.1-0.634-16.381-0.955-24.613-0.955    c-44.433,0-87.438,9.376-121.093,26.401c-2.346,1.187-5.211,0.354-6.555-1.905c-3.623-6.092-10.272-9.876-17.353-9.876    c-11.138,0-20.2,9.057-20.2,20.19c0,11.133,9.063,20.19,20.2,20.19c2.762,0,5,2.238,5,5v95.08c0,2.395-1.698,4.453-4.049,4.909    c-9.469,1.833-16.341,10.169-16.341,19.82c0,11.133,9.057,20.19,20.189,20.19c6.476,0,12.402-2.993,16.26-8.212    C194.62,402.977,196.129,402.26,197.675,402.26z"/><path d="M251.612,394.92c-1.279,0-2.558-0.487-3.534-1.463c-2.469-2.467-4.949-4.683-7.345-6.826    c-7.761-6.938-15.092-13.491-15.092-23.65c0-8.536,6.944-15.48,15.48-15.48c4.75,0,8.044,1.682,10.485,4.083    c2.439-2.401,5.731-4.083,10.484-4.083c8.548,0,15.5,6.944,15.5,15.48c0,10.15-7.323,16.697-15.077,23.628    c-2.405,2.149-4.892,4.372-7.367,6.847C254.171,394.432,252.892,394.92,251.612,394.92z M241.122,357.5    c-3.021,0-5.48,2.459-5.48,5.48c0,5.421,4.248,9.483,11.756,16.195c1.379,1.232,2.784,2.488,4.214,3.813    c1.438-1.333,2.852-2.597,4.238-3.836c7.499-6.704,11.742-10.761,11.742-16.173c0-3.021-2.467-5.48-5.5-5.48    c-2.404,0-3.7,0.482-6.007,5.097c-0.846,1.692-2.576,2.763-4.468,2.764c-0.001,0-0.003,0-0.004,0    c-1.891,0-3.621-1.066-4.469-2.757C244.824,357.982,243.528,357.5,241.122,357.5z"/><path d="M323.552,347.5c-1.279,0-2.559-0.488-3.535-1.465c-2.47-2.47-4.95-4.688-7.349-6.834    c-7.753-6.936-15.076-13.486-15.076-23.642c0-8.535,6.944-15.479,15.48-15.479c4.75,0,8.042,1.68,10.48,4.079    c2.44-2.399,5.734-4.079,10.49-4.079c8.541,0,15.489,6.944,15.489,15.479c0,10.157-7.33,16.708-15.091,23.644    c-2.4,2.146-4.883,4.364-7.355,6.834C326.11,347.013,324.831,347.5,323.552,347.5z M313.072,310.08    c-3.021,0-5.48,2.458-5.48,5.479c0,5.42,4.243,9.479,11.743,16.188c1.381,1.235,2.787,2.493,4.219,3.821    c1.434-1.329,2.842-2.587,4.224-3.822c7.508-6.709,11.755-10.77,11.755-16.188c0-3.021-2.463-5.479-5.489-5.479    c-2.413,0-3.712,0.482-6.019,5.097c-0.848,1.693-2.578,2.764-4.473,2.764c-1.894,0-3.625-1.07-4.472-2.764    C316.772,310.563,315.478,310.08,313.072,310.08z"/><path d="M396.612,394.92c-1.278,0-2.558-0.487-3.534-1.463c-2.469-2.467-4.947-4.683-7.345-6.826    c-7.761-6.938-15.091-13.491-15.091-23.65c0-8.536,6.943-15.48,15.48-15.48c4.754,0,8.049,1.68,10.488,4.079    c2.439-2.399,5.73-4.079,10.48-4.079c8.548,0,15.5,6.944,15.5,15.48c0,10.15-7.323,16.697-15.077,23.628    c-2.405,2.149-4.892,4.372-7.367,6.847C399.172,394.432,397.892,394.92,396.612,394.92z M386.123,357.5    c-3.022,0-5.48,2.459-5.48,5.48c0,5.421,4.247,9.483,11.755,16.195c1.38,1.232,2.784,2.488,4.214,3.813    c1.438-1.333,2.852-2.597,4.238-3.836c7.499-6.704,11.742-10.761,11.742-16.173c0-3.021-2.467-5.48-5.5-5.48    c-2.404,0-3.7,0.482-6.007,5.097c-0.848,1.693-2.579,2.764-4.473,2.764s-3.625-1.07-4.473-2.764    C389.833,357.982,388.535,357.5,386.123,357.5z"/><path d="M251.612,292.06c-1.326,0-2.598-0.526-3.536-1.465c-2.474-2.474-4.957-4.694-7.358-6.843    c-7.754-6.936-15.077-13.486-15.077-23.632c0-8.536,6.944-15.48,15.48-15.48c4.75,0,8.044,1.681,10.485,4.083    c2.439-2.401,5.732-4.083,10.484-4.083c8.548,0,15.5,6.944,15.5,15.48c0,10.137-7.316,16.682-15.063,23.609    c-2.41,2.154-4.9,4.383-7.38,6.864C254.212,291.532,252.94,292.06,251.612,292.06L251.612,292.06z M241.122,254.64    c-3.021,0-5.48,2.458-5.48,5.48c0,5.41,4.243,9.47,11.744,16.179c1.383,1.237,2.792,2.497,4.226,3.827    c1.442-1.339,2.86-2.605,4.251-3.85c7.491-6.701,11.729-10.755,11.729-16.156c0-3.021-2.467-5.48-5.5-5.48    c-2.405,0-3.7,0.482-6.007,5.095c-0.846,1.693-2.576,2.763-4.468,2.765c-0.001,0-0.003,0-0.004,0    c-1.891,0-3.621-1.066-4.469-2.757C244.824,255.123,243.528,254.64,241.122,254.64z"/><path d="M396.612,292.06c-1.326,0-2.598-0.526-3.535-1.465c-2.474-2.474-4.957-4.694-7.358-6.843    c-7.754-6.936-15.076-13.486-15.076-23.632c0-8.536,6.943-15.48,15.48-15.48c4.755,0,8.049,1.68,10.488,4.079    c2.438-2.399,5.73-4.079,10.48-4.079c8.548,0,15.5,6.944,15.5,15.48c0,10.137-7.316,16.682-15.063,23.609    c-2.409,2.154-4.899,4.383-7.379,6.864C399.212,291.532,397.939,292.06,396.612,292.06L396.612,292.06z M386.123,254.64    c-3.022,0-5.48,2.458-5.48,5.48c0,5.41,4.243,9.47,11.743,16.179c1.383,1.237,2.791,2.497,4.226,3.827    c1.442-1.339,2.859-2.605,4.251-3.85c7.491-6.701,11.729-10.755,11.729-16.156c0-3.021-2.467-5.48-5.5-5.48    c-2.405,0-3.7,0.482-6.007,5.095c-0.848,1.695-2.579,2.765-4.473,2.765s-3.625-1.069-4.473-2.765    C389.833,255.122,388.535,254.64,386.123,254.64z"/><path d="M210.309,208.573L210.309,208.573c-17.996,0-34.576-10.525-42.241-26.814c-0.879-1.868-0.519-4.085,0.906-5.579    c1.424-1.495,3.622-1.958,5.529-1.17c4.49,1.857,9.211,2.799,14.029,2.798c2.706,0,5.428-0.305,8.089-0.905    c9.575-2.158,17.735-7.917,22.979-16.216c5.243-8.298,6.942-18.142,4.784-27.717c-0.59-2.599-1.471-5.155-2.617-7.592    c-0.879-1.869-0.519-4.085,0.907-5.579c1.426-1.495,3.623-1.96,5.53-1.168c14.032,5.81,24.4,18.109,27.735,32.9    c5.667,25.139-10.171,50.209-35.306,55.887C217.235,208.184,213.762,208.573,210.309,208.573z M184.178,187.605    c6.795,6.878,16.188,10.967,26.13,10.968c2.715,0,5.447-0.306,8.124-0.91c19.757-4.463,32.208-24.171,27.753-43.933    c-1.701-7.545-5.732-14.266-11.369-19.303c1.593,11.008-0.758,22.101-6.762,31.602c-6.671,10.557-17.053,17.883-29.232,20.629    C194.006,187.744,189.024,188.059,184.178,187.605z"/><path d="M202.592,157.5h-30c-2.022,0-3.846-1.218-4.619-3.086c-0.773-1.869-0.346-4.019,1.084-5.449l21.464-21.464h-17.929    c-2.761,0-5-2.239-5-5s2.239-5,5-5h30c2.022,0,3.846,1.218,4.62,3.086c0.773,1.869,0.346,4.019-1.084,5.449L184.663,147.5h17.929    c2.762,0,5,2.239,5,5S205.354,157.5,202.592,157.5z"/><path d="M152.592,137.5h-20c-2.022,0-3.846-1.218-4.619-3.086c-0.773-1.869-0.346-4.019,1.084-5.449l11.464-11.464h-7.929    c-2.761,0-5-2.239-5-5s2.239-5,5-5h20c2.022,0,3.846,1.218,4.62,3.086c0.773,1.869,0.346,4.019-1.084,5.449L144.663,127.5h7.929    c2.762,0,5,2.239,5,5S155.354,137.5,152.592,137.5z"/><path d="M77.592,457.5c-22.056,0-40-17.944-40-40s17.944-40,40-40c22.057,0,40,17.944,40,40S99.648,457.5,77.592,457.5z     M77.592,387.5c-16.542,0-30,13.458-30,30s13.458,30,30,30s30-13.458,30-30S94.134,387.5,77.592,387.5z"/><path d="M427.592,152.5c-13.785,0-25-11.215-25-25s11.215-25,25-25s25,11.215,25,25S441.377,152.5,427.592,152.5z M427.592,112.5    c-8.271,0-15,6.729-15,15s6.729,15,15,15c8.271,0,15-6.729,15-15S435.863,112.5,427.592,112.5z"/></g></g><g id="Layer_1"/></svg>