<?xml version="1.0" ?><svg style="enable-background:new 0 0 59.75 59.853;" version="1.1" viewBox="0 0 59.75 59.853" xml:space="preserve" xmlns="http://www.w3.org/2000/svg" xmlns:xlink="http://www.w3.org/1999/xlink"><g id="weather_sunrise_sun"><g><g><g><path d="M47.295,44.679c0-9.69-7.855-17.545-17.545-17.545c-9.69,0-17.545,7.855-17.545,17.545      c0,0.792,0.071,1.566,0.173,2.331h34.745C47.224,46.245,47.295,45.471,47.295,44.679z" style="fill:#FCB641;"/></g><g><path d="M29.25,17.853c-0.553,0-1-0.448-1-1v-6c0-0.552,0.447-1,1-1c0.553,0,1,0.448,1,1v6      C30.25,17.405,29.803,17.853,29.25,17.853z" style="fill:#FDD185;"/></g><g><path d="M29.25,23.853c-0.553,0-1-0.448-1-1v-2c0-0.552,0.447-1,1-1c0.553,0,1,0.448,1,1v2      C30.25,23.405,29.803,23.853,29.25,23.853z" style="fill:#FDD185;"/></g><g><path d="M48.543,25.56c-0.256,0-0.512-0.098-0.707-0.293c-0.391-0.391-0.391-1.024,0-1.414l3.657-3.657      c0.391-0.391,1.023-0.391,1.414,0c0.391,0.391,0.391,1.024,0,1.414l-3.657,3.657C49.055,25.462,48.799,25.56,48.543,25.56z" style="fill:#FDC567;"/></g><g><path d="M44.3,29.802c-0.256,0-0.512-0.098-0.707-0.293c-0.391-0.391-0.391-1.024,0-1.414l1.415-1.414      c0.391-0.39,1.023-0.39,1.414,0c0.391,0.391,0.391,1.024,0,1.415l-1.415,1.414C44.811,29.705,44.556,29.802,44.3,29.802z" style="fill:#FDC567;"/></g><g><path d="M58.25,40.853h-3c-0.553,0-1-0.448-1-1s0.447-1,1-1h3c0.553,0,1,0.448,1,1      S58.803,40.853,58.25,40.853z" style="fill:#FDC567;"/></g><g><path d="M51.25,40.853h-2c-0.553,0-1-0.448-1-1s0.447-1,1-1h2c0.553,0,1,0.448,1,1      S51.803,40.853,51.25,40.853z" style="fill:#FDC567;"/></g><g><path d="M4.25,40.853h-3c-0.553,0-1-0.448-1-1s0.447-1,1-1h3c0.553,0,1,0.448,1,1      S4.803,40.853,4.25,40.853z" style="fill:#FDC567;"/></g><g><path d="M10.25,40.853h-2c-0.553,0-1-0.448-1-1s0.447-1,1-1h2c0.553,0,1,0.448,1,1      S10.803,40.853,10.25,40.853z" style="fill:#FDC567;"/></g><g><path d="M11.957,25.56c-0.256,0-0.512-0.098-0.707-0.293L7.593,21.61c-0.391-0.39-0.391-1.023,0-1.414      c0.391-0.391,1.023-0.391,1.414,0l3.657,3.657c0.391,0.39,0.391,1.023,0,1.414C12.469,25.462,12.213,25.56,11.957,25.56z" style="fill:#FDC567;"/></g><g><path d="M16.2,29.802c-0.256,0-0.512-0.098-0.707-0.292l-1.415-1.414c-0.391-0.391-0.391-1.024,0-1.415      c0.391-0.391,1.024-0.39,1.414,0l1.415,1.414c0.391,0.391,0.391,1.024,0,1.414C16.712,29.705,16.456,29.802,16.2,29.802z" style="fill:#FDC567;"/></g><path d="M51.25,53.853h-25c-0.553,0-1-0.448-1-1s0.447-1,1-1h25c0.553,0,1,0.448,1,1     S51.803,53.853,51.25,53.853z" style="fill:#BE944D;"/><path d="M19.25,53.853h-11c-0.553,0-1-0.448-1-1s0.447-1,1-1h11c0.553,0,1,0.448,1,1     S19.803,53.853,19.25,53.853z" style="fill:#BE944D;"/><path d="M33.25,59.853h-18c-0.553,0-1-0.448-1-1s0.447-1,1-1h18c0.553,0,1,0.448,1,1     S33.803,59.853,33.25,59.853z" style="fill:#BE944D;"/><path d="M45.25,59.853h-6c-0.553,0-1-0.448-1-1s0.447-1,1-1h6c0.553,0,1,0.448,1,1     S45.803,59.853,45.25,59.853z" style="fill:#BE944D;"/><path d="M13.651,9.853h-2.68c-0.815-2-3.266-4.177-6.081-3.777C2.396,6.432,0.456,8.358,0.172,10.76     c-0.186,1.572,0.277,3.075,1.305,4.23c1.051,1.184,2.593,1.862,4.228,1.862h7.947c2.049,0,3.349-1.453,3.349-3.385     c0-0.005,0-0.011,0-0.016c0-0.002,0-0.005,0-0.007c0-0.002,0-0.005,0-0.007c0-0.005,0-0.011,0-0.016     C17,11.451,15.634,9.853,13.651,9.853z" style="fill:#FDD185;"/><path d="M49.646,3.853h-2.679c-0.815-2-3.252-4.196-6.082-3.802c-2.493,0.356-4.434,2.287-4.719,4.697     c-0.187,1.576,0.278,3.082,1.309,4.242c1.053,1.184,2.592,1.863,4.224,1.863h7.947c2.04,0,3.354-1.451,3.354-3.384     c0-0.01,0-0.02,0-0.03c0-0.004,0-0.009,0-0.013c0-0.005,0-0.009,0-0.014c0-0.01,0-0.021,0-0.03     C53,5.431,51.618,3.853,49.646,3.853z" style="fill:#FDD185;"/></g><g><g><path d="M58.75,49.02H41c-0.553,0-1-0.447-1-1s0.447-1,1-1h17.75c0.553,0,1,0.447,1,1      S59.303,49.02,58.75,49.02z" style="fill:#BE944D;"/></g><g><path d="M34.75,49.02H1c-0.553,0-1-0.447-1-1s0.447-1,1-1h33.75c0.553,0,1,0.447,1,1      S35.303,49.02,34.75,49.02z" style="fill:#BE944D;"/></g></g></g></g><g id="Layer_1"/></svg>