<?xml version="1.0" ?><svg id="Layer_1" style="enable-background:new 0 0 48 48;" version="1.1" viewBox="0 0 48 48" xml:space="preserve" xmlns="http://www.w3.org/2000/svg" xmlns:xlink="http://www.w3.org/1999/xlink"><style type="text/css">
	.st0{fill:#FFCC66;}
	.st1{fill:#92D3FF;}
	.st2{fill:#666666;}
	.st3{fill:#E6E6E6;}
	.st4{fill:#CCCCCC;}
	.st5{fill:#E7B95D;}
	.st6{fill:#ED7161;}
	.st7{fill:#FFFFFF;}
	.st8{fill:#ED7B72;}
	.st9{fill:#767777;}
	.st10{fill:none;}
	.st11{fill:#515151;}
	.st12{fill:#3AB7FC;}
	.st13{fill:#54BBFF;}
	.st14{fill:#88C057;}
	.st15{fill:#98D862;}
	.st16{fill:#BF8E5F;}
	.st17{fill:#A57B51;}
	.st18{fill:#B4FE73;}
	.st19{fill:#B3B3B3;}
	.st20{fill:#333333;}
	.st21{fill:#FF8833;}
	.st22{opacity:0.4;fill:#54BBFF;}
	.st23{opacity:0.4;fill:#FFFFFF;}
	.st24{fill:#638B3F;}
	.st25{fill:#FFA769;}
	.st26{fill:#48A0DC;}
	.st27{fill:#4F5051;}
	.st28{fill:#D56455;}
</style><g id="XMLID_1811_"><path class="st0" d="M46.8,38.1l-6.4-0.2l-0.9,1.6l3.8,8.1c0.2,0.5,0.9,0.5,1.1,0l3.8-8.1L46.8,38.1z" id="XMLID_5854_"/><path class="st1" d="M39.4,5.8v33.7c0,0.1,0.1,0.2,0.2,0.2c0.1,0,0.1,0,0.2-0.1l0.7-0.7c0.2-0.2,0.5-0.2,0.7,0   l0.5,0.5c0.2,0.2,0.4,0.3,0.6,0.3c0.2,0,0.5-0.1,0.6-0.3l0.5-0.5c0.2-0.2,0.5-0.2,0.7,0l0.5,0.5c0.2,0.2,0.4,0.3,0.6,0.3h0   c0.2,0,0.4-0.1,0.6-0.3l0.5-0.5c0.2-0.2,0.5-0.2,0.7,0l0.7,0.7c0,0,0.1,0.1,0.2,0.1h0c0.1,0,0.2-0.1,0.2-0.2V5.8H39.4z" id="XMLID_5853_"/><path class="st2" d="M41.8,44.8l1.3,2.8c0.2,0.5,0.9,0.5,1.1,0l1.3-2.8H41.8z" id="XMLID_5857_"/><path class="st2" d="M46,0h-4.6c-1.1,0-2,0.9-2,2v3.8H48V2C48,0.9,47.1,0,46,0z" id="XMLID_5855_"/><g id="XMLID_5831_"><path class="st3" d="M13.9,0l19.5,0c2.1,0,3.8,1.7,3.8,3.8v40.4c0,2.1-1.7,3.8-3.8,3.8H3.8    c-2.1,0-3.8-1.7-3.8-3.8l0-30.2L13.9,0z" id="XMLID_5827_"/><path class="st0" d="M13.9,10.2c0,2.1-1.7,3.8-3.8,3.8H0L13.9,0V10.2z" id="XMLID_5826_"/><g id="XMLID_5823_"><rect class="st4" height="2.1" id="XMLID_5822_" width="29.7" x="3.8" y="19.5"/><rect class="st4" height="2.1" id="XMLID_5830_" width="16.6" x="16.8" y="13.2"/><rect class="st4" height="2.1" id="XMLID_5825_" width="29.7" x="3.8" y="26.5"/><rect class="st4" height="2.1" id="XMLID_5828_" width="29.7" x="3.8" y="33.4"/><rect class="st4" height="2.1" id="XMLID_5829_" width="29.7" x="3.8" y="40.3"/></g></g></g></svg>