<?xml version="1.0" ?><svg id="Layer_1" style="enable-background:new 0 0 48 48;" version="1.1" viewBox="0 0 48 48" xml:space="preserve" xmlns="http://www.w3.org/2000/svg" xmlns:xlink="http://www.w3.org/1999/xlink"><style type="text/css">
	.st0{fill:#CCCCCC;}
	.st1{fill:#E6E6E6;}
	.st2{fill:#92D3FF;}
	.st3{fill:#FFA769;}
	.st4{fill:#ED7B72;}
	.st5{fill:#ED7161;}
	.st6{fill:#666666;}
	.st7{fill:#99C23E;}
	.st8{fill:#515151;}
	.st9{fill:#B3B3B3;}
	.st10{fill:#FFCC66;}
	.st11{fill:#E7B95D;}
	.st12{fill:#3AB7FC;}
	.st13{fill:#D56455;}
	.st14{fill:#FFFFFF;}
	.st15{fill:#333333;}
	.st16{fill:#54BBFF;}
	.st17{fill:#BF8E5F;}
	.st18{fill:#A57B51;}
	.st19{fill:#88C057;}
	.st20{fill:#638B3F;}
	.st21{fill:#535556;}
	.st22{fill:#98D862;}
	.st23{fill:#A2E667;}
	.st24{fill:#48A0DC;}
	.st25{opacity:0.6;fill:#FFFFFF;}
	.st26{fill:none;}
	.st27{fill:#69C6F9;}
	.st28{fill:#FF8833;}
	.st29{fill:#9A7BAA;}
	.st30{fill:#E5E8EC;}
	.st31{fill:#53C6F9;}
</style><g id="XMLID_106_"><path class="st8" d="M43.3,44.5C43,34.6,35,26.3,25.1,25.8C14,25.1,4.7,34,4.7,45c0,0,0,0.1,0,0.1   c0,2.7,3.3,3.8,5.2,1.9c3.5-3.8,8.5-6.1,14.1-6.1c5.6,0,10.6,2.4,14.1,6.1c1.9,2,5.2,0.8,5.2-1.9C43.3,44.9,43.3,44.7,43.3,44.5z" id="XMLID_1409_"/><circle class="st6" cx="24" cy="18.2" id="XMLID_1398_" r="18.2"/><circle class="st1" cx="24" cy="18.2" id="XMLID_1399_" r="13.1"/><circle class="st0" cx="24" cy="18.2" id="XMLID_1397_" r="10.3"/><circle class="st12" cx="24" cy="18.2" id="XMLID_1400_" r="6.7"/><circle class="st31" cx="24" cy="18.2" id="XMLID_107_" r="3.7"/><circle class="st14" cx="21.7" cy="15.8" id="XMLID_207_" r="1.9"/><circle class="st14" cx="26.5" cy="20.5" id="XMLID_206_" r="1.2"/></g></svg>